<svg width="38" height="38" viewBox="0 0 38 38" fill="none" xmlns="http://www.w3.org/2000/svg">
<path d="M13.7998 32C14.4293 32 14.9395 31.4897 14.9395 30.8603C14.9395 30.2309 14.4293 29.7206 13.7998 29.7206C13.1704 29.7206 12.6602 30.2309 12.6602 30.8603C12.6602 31.4897 13.1704 32 13.7998 32Z" fill="black" stroke="black" stroke-width="2" stroke-linecap="round" stroke-linejoin="round"/>
<path d="M29.753 32C30.3824 32 30.8927 31.4897 30.8927 30.8603C30.8927 30.2309 30.3824 29.7206 29.753 29.7206C29.1235 29.7206 28.6133 30.2309 28.6133 30.8603C28.6133 31.4897 29.1235 32 29.753 32Z" fill="black" stroke="black" stroke-width="2" stroke-linecap="round" stroke-linejoin="round"/>
<path d="M4.67969 6.9269H9.23843L12.6575 26.3016H30.8925" stroke="black" stroke-width="2" stroke-linecap="square" stroke-linejoin="round"/>
<path d="M12.6544 21.7428H30.4221C30.5539 21.7429 30.6816 21.6973 30.7836 21.6138C30.8855 21.5303 30.9554 21.414 30.9812 21.2848L33.0327 11.0276C33.0492 10.9449 33.0472 10.8596 33.0268 10.7777C33.0063 10.6959 32.968 10.6196 32.9145 10.5544C32.861 10.4892 32.7937 10.4367 32.7174 10.4006C32.6412 10.3646 32.5579 10.3459 32.4735 10.346H10.375" stroke="black" stroke-width="2" stroke-linecap="square" stroke-linejoin="round"/>
</svg>
