<svg width="30" height="30" viewBox="0 0 30 30" fill="none" xmlns="http://www.w3.org/2000/svg">
<circle cx="15" cy="15" r="15" fill="white"/>
<circle cx="15" cy="15" r="10" fill="#1C1C1C"/>
<path d="M15 12.6187C14.5291 12.6189 14.0688 12.7587 13.6773 13.0205C13.2858 13.2823 12.9807 13.6542 12.8006 14.0894C12.6206 14.5245 12.5735 15.0032 12.6655 15.4651C12.7575 15.927 12.9844 16.3512 13.3174 16.6841C13.6505 17.017 14.0748 17.2438 14.5367 17.3356C14.9986 17.4274 15.4773 17.3802 15.9124 17.1999C16.3474 17.0196 16.7193 16.7144 16.9809 16.3229C17.2425 15.9313 17.3821 15.4709 17.3821 15C17.3817 14.3684 17.1305 13.7629 16.6839 13.3164C16.2372 12.8699 15.6316 12.619 15 12.6187ZM20.5674 10.7884C20.4462 10.4812 20.2631 10.2022 20.0296 9.96862C19.7961 9.73509 19.517 9.55203 19.2098 9.4308C18.2723 9.06071 16.0402 9.14375 15 9.14375C13.9598 9.14375 11.7299 9.05759 10.7897 9.4308C10.4825 9.55203 10.2035 9.73509 9.96996 9.96862C9.73642 10.2022 9.55337 10.4812 9.43214 10.7884C9.0625 11.7259 9.14509 13.9603 9.14509 14.9996C9.14509 16.0388 9.0625 18.2705 9.43393 19.2112C9.55515 19.5184 9.73821 19.7974 9.97174 20.0309C10.2053 20.2645 10.4843 20.4475 10.7915 20.5687C11.729 20.9388 13.9612 20.8558 15.0018 20.8558C16.0424 20.8558 18.2714 20.942 19.2116 20.5687C19.5188 20.4475 19.7978 20.2645 20.0314 20.0309C20.2649 19.7974 20.448 19.5184 20.5692 19.2112C20.942 18.2737 20.8562 16.0393 20.8562 15C20.8562 13.9607 20.942 11.7295 20.5692 10.7888L20.5674 10.7884ZM15 18.6607C14.276 18.6607 13.5682 18.446 12.9662 18.0438C12.3642 17.6415 11.895 17.0698 11.6179 16.4009C11.3409 15.732 11.2684 14.9959 11.4096 14.2858C11.5509 13.5757 11.8995 12.9234 12.4115 12.4115C12.9234 11.8995 13.5757 11.5509 14.2858 11.4096C14.9959 11.2684 15.732 11.3409 16.4009 11.6179C17.0698 11.895 17.6415 12.3642 18.0438 12.9662C18.446 13.5682 18.6607 14.276 18.6607 15C18.6613 15.4809 18.567 15.9572 18.3833 16.4016C18.1995 16.846 17.9299 17.2498 17.5898 17.5898C17.2498 17.9299 16.846 18.1995 16.4016 18.3833C15.9572 18.567 15.4809 18.6613 15 18.6607ZM18.8116 12.0402C18.6426 12.0403 18.4773 11.9902 18.3368 11.8964C18.1962 11.8026 18.0866 11.6691 18.0219 11.513C17.9571 11.3569 17.9401 11.1851 17.9731 11.0193C18.006 10.8535 18.0873 10.7012 18.2068 10.5817C18.3263 10.4621 18.4785 10.3807 18.6443 10.3477C18.8101 10.3147 18.9819 10.3316 19.138 10.3962C19.2942 10.4609 19.4277 10.5704 19.5216 10.711C19.6155 10.8515 19.6656 11.0167 19.6656 11.1857C19.6661 11.298 19.6444 11.4092 19.6018 11.513C19.5592 11.6168 19.4965 11.7112 19.4173 11.7908C19.3381 11.8704 19.244 11.9335 19.1404 11.9766C19.0368 12.0197 18.9256 12.0419 18.8134 12.042L18.8116 12.0402ZM22.8571 5H7.14286C6.57454 5 6.02949 5.22576 5.62763 5.62763C5.22576 6.02949 5 6.57454 5 7.14286V22.8571C5 23.4255 5.22576 23.9705 5.62763 24.3724C6.02949 24.7742 6.57454 25 7.14286 25H22.8571C23.4255 25 23.9705 24.7742 24.3724 24.3724C24.7742 23.9705 25 23.4255 25 22.8571V7.14286C25 6.57454 24.7742 6.02949 24.3724 5.62763C23.9705 5.22576 23.4255 5 22.8571 5ZM22.0929 17.9464C22.0353 19.0906 21.7741 20.1045 20.9388 20.9375C20.1036 21.7705 19.0906 22.0371 17.9478 22.0915C16.7688 22.158 13.2339 22.158 12.0549 22.0915C10.9107 22.0339 9.90045 21.7723 9.06384 20.9375C8.22723 20.1027 7.96429 19.0884 7.90982 17.9464C7.8433 16.767 7.8433 13.2317 7.90982 12.0536C7.96741 10.9094 8.22545 9.89554 9.06384 9.0625C9.90223 8.22946 10.9152 7.96607 12.0549 7.91161C13.2339 7.84509 16.7688 7.84509 17.9478 7.91161C19.092 7.9692 20.1054 8.2308 20.9388 9.06563C21.7723 9.90045 22.0384 10.9147 22.0929 12.0589C22.1594 13.2339 22.1594 16.7661 22.0929 17.9464Z" fill="white"/>
</svg>
