<svg width="179" height="30" viewBox="0 0 179 30" fill="none" xmlns="http://www.w3.org/2000/svg">
<path d="M5.04343 28.9732C3.47444 28.2863 2.24194 27.3162 1.34592 26.0555C0.44612 24.7986 0 23.3303 0 21.6507H5.1266C5.24002 22.9076 5.73529 23.9456 6.61997 24.7571C7.50087 25.5686 8.74093 25.9725 10.3402 25.9725C11.9923 25.9725 13.2815 25.5724 14.2078 24.776C15.1341 23.9795 15.5953 22.9529 15.5953 21.6922C15.5953 20.7146 15.308 19.9144 14.7333 19.2991C14.1586 18.6839 13.4441 18.2083 12.5897 17.8723C11.7352 17.5364 10.5519 17.1741 9.0396 16.7815C7.13414 16.2795 5.58406 15.7662 4.39693 15.249C3.20602 14.7319 2.18901 13.928 1.3497 12.8371C0.510392 11.7463 0.0869556 10.2931 0.0869556 8.47376C0.0869556 6.79409 0.506611 5.3258 1.3497 4.06888C2.18901 2.81196 3.36858 1.84568 4.88086 1.17382C6.39313 0.501949 8.14358 0.166016 10.136 0.166016C12.9639 0.166016 15.2853 0.871853 17.0924 2.28353C18.8996 3.6952 19.9015 5.63531 20.0981 8.09631H14.7938C14.7106 7.03189 14.204 6.12223 13.2815 5.36732C12.3553 4.61241 11.1379 4.23496 9.62561 4.23496C8.25322 4.23496 7.13036 4.58599 6.26458 5.28428C5.39503 5.98257 4.96025 6.99037 4.96025 8.30391C4.96025 9.19847 5.23246 9.9345 5.78066 10.5082C6.32886 11.082 7.02072 11.5349 7.86003 11.8708C8.69934 12.2068 9.84867 12.5691 11.308 12.9617C13.2399 13.4939 14.8165 14.0261 16.0376 14.5545C17.255 15.0867 18.2909 15.9058 19.1491 17.008C20.0036 18.1139 20.4308 19.5898 20.4308 21.4355C20.4308 22.9189 20.03 24.3155 19.2323 25.6328C18.4346 26.9463 17.2701 28.0032 15.7427 28.7996C14.2154 29.596 12.4157 29.9961 10.3402 29.9961C8.37798 29.9999 6.61241 29.6602 5.04343 28.9732Z" fill="white"/>
<path d="M77.9206 0.543701V4.44657H70.1437V29.7057H65.3536V4.44657H57.5352V0.543701H77.9206Z" fill="white"/>
<path d="M87.0844 28.9732C85.5155 28.2863 84.283 27.3162 83.3869 26.0555C82.4909 24.7986 82.041 23.3265 82.041 21.6507H87.1676C87.281 22.9076 87.7763 23.9456 88.661 24.7571C89.5419 25.5686 90.7819 25.9725 92.3812 25.9725C94.0333 25.9725 95.3225 25.5724 96.2488 24.776C97.1751 23.9795 97.6363 22.9529 97.6363 21.6922C97.6363 20.7146 97.349 19.9144 96.7743 19.2991C96.1997 18.6839 95.4851 18.2083 94.6307 17.8723C93.7762 17.5364 92.5929 17.1741 91.0806 16.7815C89.1752 16.2795 87.6251 15.7662 86.4379 15.249C85.247 14.7319 84.23 13.928 83.3907 12.8371C82.5514 11.7463 82.128 10.2931 82.128 8.47376C82.128 6.79409 82.5476 5.3258 83.3907 4.06888C84.23 2.81196 85.4096 1.84568 86.9219 1.17382C88.4341 0.501949 90.1846 0.166016 92.177 0.166016C95.005 0.166016 97.3263 0.871853 99.1335 2.28353C100.941 3.6952 101.943 5.63531 102.139 8.09631H96.8424C96.7592 7.03189 96.2526 6.12223 95.3301 5.36732C94.4038 4.61241 93.1865 4.23496 91.6742 4.23496C90.3018 4.23496 89.1789 4.58599 88.3132 5.28428C87.4436 5.98257 87.0088 6.99037 87.0088 8.30391C87.0088 9.19847 87.281 9.9345 87.8292 10.5082C88.3774 11.082 89.0693 11.5349 89.9086 11.8708C90.7479 12.2068 91.8972 12.5691 93.3566 12.9617C95.2885 13.4939 96.8651 14.0261 98.0862 14.5545C99.3036 15.0867 100.34 15.9058 101.198 17.008C102.052 18.1139 102.479 19.5898 102.479 21.4355C102.479 22.9189 102.079 24.3155 101.281 25.6328C100.483 26.9463 99.3187 28.0032 97.7913 28.7996C96.2639 29.596 94.4643 29.9961 92.3887 29.9961C90.419 29.9999 88.6534 29.6602 87.0844 28.9732Z" fill="white"/>
<path d="M112.933 0.543701V29.7057H108.143V0.543701H112.933Z" fill="white"/>
<path d="M123.983 0.543701V19.1333C123.983 21.3414 124.566 23.0097 125.726 24.127C126.891 25.2442 128.505 25.8066 130.581 25.8066C132.683 25.8066 134.312 25.248 135.477 24.127C136.641 23.0097 137.22 21.3451 137.22 19.1333V0.543701H142.01V19.0502C142.01 21.4282 141.492 23.4438 140.456 25.0933C139.42 26.7427 138.032 27.9732 136.293 28.7847C134.554 29.5963 132.637 30.0002 130.535 30.0002C128.433 30.0002 126.52 29.5963 124.8 28.7847C123.076 27.9732 121.711 26.7427 120.702 25.0933C119.692 23.4438 119.189 21.4282 119.189 19.0502V0.543701H123.983Z" fill="white"/>
<path d="M179 0.543701V29.7057H174.21V9.73469L165.299 29.7095H161.979L153.026 9.73469V29.7095H148.236V0.543701H153.405L163.658 23.4136L173.873 0.543701H179Z" fill="white"/>
<path d="M39.4205 0C31.1786 0 24.502 6.6696 24.502 14.8943C24.502 23.1228 31.1824 29.7886 39.4205 29.7886C47.6624 29.7886 54.3391 23.119 54.3391 14.8943C54.3428 6.6696 47.6624 0 39.4205 0ZM43.4961 5.8845C44.9327 5.8845 46.0934 7.90764 46.0934 10.4064C46.0934 12.9051 44.929 14.9283 43.4961 14.9283C42.0594 14.9283 40.8988 12.9051 40.8988 10.4064C40.895 7.90764 42.0594 5.8845 43.4961 5.8845ZM35.3487 5.8845C36.7854 5.8845 37.946 7.90764 37.946 10.4064C37.946 12.9051 36.7816 14.9283 35.3487 14.9283C33.9121 14.9283 32.7514 12.9051 32.7514 10.4064C32.7514 7.90764 33.9158 5.8845 35.3487 5.8845ZM49.7531 18.5518C48.944 20.2277 45.8325 25.6479 39.3525 25.6479C32.8988 25.6479 29.8176 20.2353 29.0199 18.5518H28.4376V17.0345H30.0406L30.2259 17.5252C30.328 17.7931 32.8157 24.1306 39.3562 24.1306C45.8136 24.1306 48.4488 17.7818 48.5584 17.5101L48.7512 17.0345H50.4072V18.5518H49.7531Z" fill="white"/>
</svg>
