<svg width="290" height="50" viewBox="0 0 290 50" fill="none" xmlns="http://www.w3.org/2000/svg">
<g clip-path="url(#clip0_1367_4447)">
<path d="M8.76343 48.2854C6.20973 47.1339 4.2037 45.508 2.74533 43.3949C1.2808 41.2881 0.554688 38.827 0.554688 36.0116H8.8988C9.08341 38.1184 9.88951 39.8582 11.3294 41.2185C12.7632 42.5787 14.7815 43.2557 17.3845 43.2557C20.0735 43.2557 22.1719 42.585 23.6795 41.2501C25.1871 39.9152 25.9378 38.1943 25.9378 36.0812C25.9378 34.4426 25.4701 33.1013 24.5348 32.0701C23.5995 31.0388 22.4365 30.2416 21.0458 29.6786C19.6551 29.1155 17.729 28.5081 15.2677 27.8502C12.1663 27.0087 9.64337 26.1483 7.71118 25.2815C5.77284 24.4148 4.11755 23.0672 2.75148 21.2387C1.38541 19.4103 0.696217 16.9745 0.696217 13.9251C0.696217 11.1097 1.37925 8.64861 2.75148 6.54181C4.11755 4.43502 6.03744 2.81538 8.49883 1.68923C10.9602 0.563077 13.8093 0 17.0522 0C21.655 0 25.4332 1.18309 28.3746 3.54928C31.3159 5.91547 32.9466 9.1674 33.2666 13.2924H24.6332C24.4979 11.5083 23.6733 9.98354 22.1719 8.7182C20.6643 7.45286 18.6828 6.82019 16.2214 6.82019C13.9877 6.82019 12.1601 7.40857 10.751 8.57901C9.3357 9.74945 8.62805 11.4387 8.62805 13.6404C8.62805 15.1398 9.0711 16.3735 9.96336 17.3352C10.8556 18.2968 11.9817 19.056 13.3478 19.6191C14.7138 20.1822 16.5845 20.7896 18.9597 21.4475C22.1042 22.3396 24.6702 23.2317 26.6577 24.1174C28.6392 25.0095 30.3252 26.3824 31.7221 28.2298C33.1127 30.0835 33.8081 32.5572 33.8081 35.651C33.8081 38.1374 33.1558 40.4783 31.8574 42.6863C30.559 44.888 28.6638 46.6594 26.1778 47.9944C23.6918 49.3293 20.7627 49.9999 17.3845 49.9999C14.1908 50.0063 11.3171 49.4369 8.76343 48.2854Z" fill="black"/>
<path d="M127.333 0V6.41287H114.648V47.9167H106.834V6.41287H94.0801V0H127.333Z" fill="black"/>
<path d="M141.774 48.2854C139.221 47.1339 137.216 45.508 135.758 43.3949C134.3 41.2881 133.568 38.8207 133.568 36.0116H141.909C142.094 38.1184 142.9 39.8582 144.339 41.2185C145.772 42.5787 147.79 43.2557 150.392 43.2557C153.08 43.2557 155.178 42.585 156.685 41.2501C158.192 39.9152 158.942 38.1943 158.942 36.0812C158.942 34.4426 158.475 33.1013 157.54 32.0701C156.605 31.0388 155.442 30.2416 154.052 29.6786C152.662 29.1155 150.736 28.5081 148.276 27.8502C145.176 27.0087 142.654 26.1483 140.722 25.2815C138.785 24.4148 137.13 23.0672 135.764 21.2387C134.399 19.4103 133.71 16.9745 133.71 13.9251C133.71 11.1097 134.393 8.64861 135.764 6.54181C137.13 4.43502 139.049 2.81538 141.51 1.68923C143.97 0.563077 146.818 0 150.06 0C154.661 0 158.438 1.18309 161.378 3.54928C164.318 5.91547 165.948 9.1674 166.268 13.2924H157.65C157.515 11.5083 156.691 9.98354 155.19 8.7182C153.683 7.45286 151.702 6.82019 149.242 6.82019C147.009 6.82019 145.182 7.40857 143.773 8.57901C142.358 9.74945 141.651 11.4387 141.651 13.6404C141.651 15.1398 142.094 16.3735 142.986 17.3352C143.878 18.2968 145.003 19.056 146.369 19.6191C147.735 20.1822 149.605 20.7896 151.979 21.4475C155.122 22.3396 157.687 23.2317 159.674 24.1174C161.655 25.0095 163.34 26.3824 164.737 28.2298C166.127 30.0835 166.822 32.5572 166.822 35.651C166.822 38.1374 166.17 40.4783 164.872 42.6863C163.574 44.888 161.679 46.6594 159.194 47.9944C156.709 49.3293 153.781 49.9999 150.404 49.9999C147.199 50.0063 144.327 49.4369 141.774 48.2854Z" fill="black"/>
<path d="M183.448 0V47.9167H175.135V0H183.448Z" fill="black"/>
<path d="M201.699 0V31.5543C201.699 35.3024 202.653 38.1343 204.556 40.0308C206.465 41.9272 209.111 42.8819 212.514 42.8819C215.96 42.8819 218.631 41.9336 220.54 40.0308C222.449 38.1343 223.397 35.3088 223.397 31.5543V0H231.25V31.4134C231.25 35.4498 230.401 38.8711 228.703 41.6709C227.004 44.4708 224.73 46.5595 221.879 47.937C219.028 49.3145 215.886 50 212.44 50C208.994 50 205.857 49.3145 203.037 47.937C200.211 46.5595 197.974 44.4708 196.319 41.6709C194.664 38.8711 193.84 35.4498 193.84 31.4134V0H201.699Z" fill="black"/>
<path d="M289.443 0V47.9105H281.676V15.0999L267.227 47.9167H261.845L247.329 15.0999V47.9167H239.562V0H247.942L264.567 37.5731L281.13 0H289.443Z" fill="black"/>
<path d="M63.9438 0C50.7396 0 40.043 11.1949 40.043 25C40.043 38.8115 50.7457 50 63.9438 50C77.1481 50 87.8447 38.8051 87.8447 25C87.8508 11.1949 77.1481 0 63.9438 0ZM70.4733 9.87709C72.7749 9.87709 74.6344 13.2729 74.6344 17.4671C74.6344 21.6612 72.7689 25.057 70.4733 25.057C68.1716 25.057 66.3121 21.6612 66.3121 17.4671C66.3061 13.2729 68.1716 9.87709 70.4733 9.87709ZM57.4205 9.87709C59.7221 9.87709 61.5816 13.2729 61.5816 17.4671C61.5816 21.6612 59.7161 25.057 57.4205 25.057C55.1188 25.057 53.2593 21.6612 53.2593 17.4671C53.2593 13.2729 55.1249 9.87709 57.4205 9.87709ZM80.4976 31.1391C79.2014 33.9521 74.2165 43.0499 63.8348 43.0499C53.4955 43.0499 48.5591 33.9648 47.2811 31.1391H46.3483V28.5922H48.9165L49.2132 29.4159C49.3768 29.8657 53.3623 40.503 63.8409 40.503C74.1862 40.503 78.4079 29.8467 78.5836 29.3905L78.8925 28.5922H81.5455V31.1391H80.4976Z" fill="black"/>
</g>
<defs>
<clipPath id="clip0_1367_4447">
<rect width="288.889" height="50" fill="white" transform="translate(0.554688)"/>
</clipPath>
</defs>
</svg>
