<svg width="24" height="24" viewBox="0 0 24 24" fill="none" xmlns="http://www.w3.org/2000/svg">
<path fill-rule="evenodd" clip-rule="evenodd" d="M9.172 13.4229L12.002 15.4869L14.73 13.4795L20.845 19.9147C20.684 19.9701 20.512 20 20.333 20H3.667C3.447 20 3.237 19.9541 3.044 19.872L9.172 13.4229ZM22 8.1344V18.2219C22 18.4853 21.946 18.7349 21.85 18.96L15.856 12.6517L22 8.1344ZM2 8.19093L8.042 12.5984L2.106 18.8469C2.0357 18.6471 1.99979 18.4353 2 18.2219V8.19093ZM20.333 4C21.253 4 22 4.79573 22 5.77813V6.4032L11.998 13.7579L2 6.464V5.77813C2 4.7968 2.746 4 3.667 4H20.333Z" fill="white"/>
</svg>
